# AST/ASF file generated using VICON BodyLanguage
# -----------------------------------------------
:version 1.10
:name VICON
:units
  mass 1.0
  length 0.45
  angle deg
:documentation
   .ast/.asf automatically generated from VICON data using
   VICON BodyBuilder and BodyLanguage model FoxedUp or BRILLIANT.MOD
:root
   order TX TY TZ RX RY RZ
   axis XYZ
   position 0 0 0  
   orientation 0 0 0 
:bonedata
  begin
     id 1 
     name lhipjoint
     direction 0.558404 -0.748506 0.357664 
     length 2.4234 
     axis 0 0 0  XYZ
  end
  begin
     id 2 
     name lfemur
     direction 0.34202 -0.939693 0  
     length 7.14567  
     axis 0 0 20  XYZ
    dof rx ry rz
    limits (-160.0 20.0)
           (-70.0 70.0)
           (-60.0 70.0)
  end
  begin
     id 3 
     name ltibia
     direction 0.34202 -0.939693 0   
     length 8.13956   
     axis 0 0 20   XYZ
    dof rx
    limits (-10.0 170.0)
  end
  begin
     id 4 
     name lfoot
     direction 0.0791314 -0.217412 0.972867   
     length 2.00134   
     axis -90 7.62852e-016 20   XYZ
    dof rx rz
    limits (-45.0 90.0)
           (-70.0 20.0)
  end
  begin
     id 5 
     name ltoes
     direction 1.53547e-011 -4.21922e-011 1   
     length 1.00735   
     axis -90 7.62852e-016 20   XYZ
    dof rx
    limits (-90.0 20.0)
  end
  begin
     id 6 
     name rhipjoint
     direction -0.496392 -0.78327 0.374276   
     length 2.31584  
     axis 0 0 0  XYZ 
  end
  begin
     id 7 
     name rfemur
     direction -0.34202 -0.939693 0   
     length 7.47417   
     axis 0 0 -20   XYZ
    dof rx ry rz
    limits (-160.0 20.0)
           (-70.0 70.0)
           (-70.0 60.0)
  end
  begin
     id 8 
     name rtibia
     direction -0.34202 -0.939693 0   
     length 7.69071   
     axis 0 0 -20   XYZ
    dof rx
    limits (-10.0 170.0)
 end
 begin
     id 9 
     name rfoot
     direction -0.103069 -0.28318 0.953512   
     length 2.16135  
     axis -90 -7.62852e-016 -20   XYZ
    dof rx rz
    limits (-45.0 90.0)
           (-20.0 70.0)
  end
  begin
     id 10 
     name rtoes
     direction -1.53581e-011 -4.21904e-011 1   
     length 1.07867   
     axis -90 -7.62852e-016 -20   XYZ
    dof rx
    limits (-90.0 20.0)
  end
  begin
     id 11 
     name lowerback
     direction -0.0258961 0.994776 -0.0987407   
     length 2.19412   
     axis 0 0 0   XYZ
    dof rx ry rz
    limits (-20.0 45.0)
           (-30.0 30.0)
           (-30.0 30.0)
  end
  begin
     id 12 
     name upperback
     direction 0.0402454 0.999185 0.00320666   
     length 2.18445   
     axis 0 0 0   XYZ
    dof rx ry rz
    limits (-20.0 45.0)
           (-30.0 30.0)
           (-30.0 30.0)
  end
  begin
     id 13 
     name thorax
     direction 0.0519376 0.997415 0.0496558   
     length 2.21487   
     axis 0 0 0   XYZ
    dof rx ry rz
    limits (-20.0 45.0)
           (-30.0 30.0)
           (-30.0 30.0)
  end
  begin
     id 14 
     name lowerneck
     direction -0.0921276 0.983211 0.157506   
     length 1.61201   
     axis 0 0 0   XYZ
    dof rx ry rz
    limits (-20.0 45.0)
           (-30.0 30.0)
           (-30.0 30.0)
  end
  begin
     id 15 
     name upperneck
     direction 0.0820814 0.98162 -0.172292   
     length 1.65275   
     axis 0 0 0   XYZ
    dof rx ry rz
    limits (-20.0 45.0)
           (-30.0 30.0)
           (-30.0 30.0)
  end
  begin
     id 16
     name head
     direction 0.0336554 0.996413 -0.0776455  
     length 1.66415  
     axis 0 0 0   XYZ
    dof rx ry rz
    limits (-20.0 45.0)
           (-30.0 30.0)
           (-30.0 30.0)
  end
  begin
     id 17 
     name lclavicle
     direction 0.94696 0.284418 -0.149576  
     length 3.41447  
     axis 0 0 0   XYZ
    dof ry rz
    limits (-20.0 10.0)
           (0.0 20.0)
  end
  begin
     id 18 
     name lhumerus
     direction 1 -0.000130264 -9.81312e-005   
     length 5.19964   
     axis 180 -30 -90   XYZ
    dof rx ry rz
    limits (-60.0 90.0)
           (-90.0 90.0)
           (-90.0 90.0)
  end
  begin
     id 19
     name lradius
     direction 1 -4.48961e-011 1.43854e-026   
     length 3.32189   
     axis 180 -30 -90   XYZ
    dof rx
    limits (-10.0 170.0)
  end
  begin
     id 20
     name lwrist
     direction 1 -4.48958e-011 3.1502e-026   
     length 1.66095   
     axis -1.97692e-014 90 90   XYZ
    dof ry
    limits (-180.0 0.0)
 end
  begin
     id 21 
     name lhand
     direction 1 -4.48927e-011 6.3004e-026   
     length 0.645616   
     axis -4.02019e-014 90 90   XYZ
    dof rx rz
    limits (-90.0 90.0)
           (-45.0 45.0)
  end
  begin
     id 22 
     name lfingers
     direction 1 -4.4904e-011 1.26008e-025   
     length 0.520512   
     axis -8.04039e-014 90 90   XYZ
    dof rx
    limits (0.0 90.0)
  end
  begin
     id 23
     name lthumb
     direction 0.707107 -6.34947e-011 0.707107   
     length 0.747354   
     axis -90 45 2.85299e-015   XYZ
    dof rx rz
    limits (-45.0 45.0)
           (-45.0 45.0)
  end
  begin
     id 24 
     name rclavicle
     direction -0.909391 0.383475 -0.161107   
     length 3.25176  
     axis 0 0 0   XYZ 
    dof ry rz
    limits (-10.0 20.0)
           (-20.0 0.0)
  end
  begin
     id 25 
     name rhumerus
     direction -1 -4.48965e-011 -1.81384e-027  
     length 5.6595   
     axis 180 30 90   XYZ
    dof rx ry rz
    limits (-90.0 60.0)
           (-90.0 90.0)
           (-90.0 90.0)
  end
  begin
     id 26 
     name rradius
     direction -1 -4.48996e-011 -8.09397e-027   
     length 3.37604   
     axis 180 30 90   XYZ
    dof rx
    limits (-10.0 170.0)
  end
  begin
     id 27 
     name rwrist
     direction -1 -4.48927e-011 -1.56669e-026   
     length 1.68802   
     axis 1.21142e-014 -90 -90   XYZ
    dof ry
    limits (-180.0 0.0)
  end
  begin
     id 28
     name rhand
     direction -1 -4.48912e-011 -3.13339e-026   
     length 0.824702   
     axis 1.99937e-014 -90 -90   XYZ
    dof rx rz
    limits (-90.0 90.0)
           (-45.0 45.0)
  end
  begin
     id 29
     name rfingers
     direction -1 -4.49011e-011 -6.26677e-026   
     length 0.664896   
     axis 3.99874e-014 -90 -90   XYZ
    dof rx
    limits (0.0 90.0)
  end
  begin
     id 30
     name rthumb
     direction -0.707107 -6.34931e-011 0.707107   
     length 0.954662   
     axis -90 -45 -2.85299e-015   XYZ
    dof rx rz
    limits (-45.0 45.0)
           (-45.0 45.0)
  end
:hierarchy
  begin
    root lhipjoint rhipjoint lowerback
    lhipjoint lfemur
    lfemur ltibia
    ltibia lfoot
    lfoot ltoes
    rhipjoint rfemur
    rfemur rtibia
    rtibia rfoot
    rfoot rtoes
    lowerback upperback
    upperback thorax
    thorax lowerneck lclavicle rclavicle
    lowerneck upperneck
    upperneck head
    lclavicle lhumerus
    lhumerus lradius
    lradius lwrist
    lwrist lhand lthumb
    lhand lfingers
    rclavicle rhumerus
    rhumerus rradius
    rradius rwrist
    rwrist rhand rthumb
    rhand rfingers
  end

#!OML:ASF F:\VICON\USERDATA\INSTALL\rory3\rory3.ASF
:FULLY-SPECIFIED
:DEGREES
19
root 10.4269 17.7615 -18.157 7.35689 -37.7405 -7.88338
lowerback 3.62797 -0.230113 -2.04183
upperback -1.64146 -0.28331 4.38112
thorax -3.70646 -0.0441573 5.7299
lowerneck -10.567 -9.01323 -18.2002
upperneck 15.9488 -11.931 14.3707
head 8.69701 -5.64229 6.45827
rclavicle 4.22573e-014 -8.15017e-015
rhumerus -37.8886 -19.7537 -69.0311
rradius 35.6814
rwrist -17.521
rhand -10.9041 16.5079
rfingers 7.12502
rthumb 15.1129 -12.9204
lclavicle 4.22573e-014 -8.15017e-015
lhumerus -33.0735 22.7255 75.3368
lradius 25.0122
lwrist -11.0841
lhand -1.85757 31.6766
lfingers 7.12502
lthumb 23.81 60.2211
rfemur -14.7986 4.7041 23.0002
rtibia 37.9168
rfoot -20.072 -10.1281
rtoes 10.8966
lfemur -12.2189 1.04848 -16.6161
ltibia 37.5461
lfoot -24.6508 9.50833
ltoes 6.53001
20
root 10.4268 17.7628 -18.1627 7.56619 -37.6278 -8.15628
lowerback 3.68056 -0.270355 -1.83252
upperback -1.6892 -0.324052 4.43914
thorax -3.78173 -0.0670214 5.67568
lowerneck -10.449 -8.98947 -17.9583
upperneck 15.7983 -11.896 14.136
head 8.5867 -5.63367 6.34073
rclavicle -1.27023e-013 -2.62396e-014
rhumerus -37.8364 -19.6006 -69.2174
rradius 35.8014
rwrist -17.4897
rhand -11.2707 16.2817
rfingers 7.12502
rthumb 14.7597 -13.1728
lclavicle -1.27023e-013 -2.62396e-014
lhumerus -33.0946 22.6159 75.3845
lradius 25.103
lwrist -10.9747
lhand -1.53791 32.0007
lfingers 7.12502
lthumb 24.1165 60.505
rfemur -14.8289 4.76764 23.2789
rtibia 37.8519
rfoot -20.02 -10.3207
rtoes 10.9582
lfemur -12.344 1.09265 -16.329
ltibia 37.6018
lfoot -24.5993 9.42262
ltoes 6.376
21
root 10.4255 17.7633 -18.1628 7.65604 -37.5919 -8.21111
lowerback 3.63748 -0.371736 -1.83581
upperback -1.68502 -0.459866 4.46761
thorax -3.73759 -0.135702 5.71598
lowerneck -10.6428 -8.91798 -17.7262
upperneck 15.9277 -11.7756 13.9329
head 8.61491 -5.57152 6.24468
rclavicle -2.45654e-014 1.80894e-014
rhumerus -37.6095 -19.5766 -69.3775
rradius 35.7278
rwrist -17.1128
rhand -11.2077 16.4776
rfingers 7.12502
rthumb 14.8204 -12.9725
lclavicle -2.45654e-014 1.80894e-014
lhumerus -33.0702 22.6251 75.3635
lradius 25.2024
lwrist -10.7671
lhand -0.685525 32.9457
lfingers 7.12502
lthumb 24.9336 61.3391
rfemur -14.8716 4.77531 23.3331
rtibia 37.8169
rfoot -20.0799 -10.3646
rtoes 11.442
lfemur -12.4358 1.10596 -16.2688
ltibia 37.6468
lfoot -24.6141 9.38514
ltoes 6.52803
22
root 10.4238 17.7622 -18.1608 7.64712 -37.5415 -8.21933
lowerback 3.61034 -0.467929 -1.83592
upperback -1.66364 -0.588505 4.51481
thorax -3.68516 -0.201203 5.77358
lowerneck -10.8138 -8.83108 -17.6919
upperneck 16.0507 -11.6319 13.8809
head 8.65638 -5.49948 6.23931
rclavicle -3.55017e-015 6.75868e-015
rhumerus -37.3992 -19.7679 -69.3267
rradius 35.5825
rwrist -16.6657
rhand -10.7283 16.8255
rfingers 7.12502
rthumb 15.2822 -12.59
lclavicle -3.55017e-015 6.75868e-015
lhumerus -33.1227 22.5975 75.4515
lradius 25.3811
lwrist -10.4146
lhand 0.148007 34.0913
lfingers 7.12502
lthumb 25.7321 62.3716
rfemur -14.8311 4.74523 23.3572
rtibia 37.8005
rfoot -20.133 -10.3333
rtoes 11.4164
lfemur -12.4241 1.02192 -16.2459
ltibia 37.6509
lfoot -24.6424 9.34766
ltoes 6.6698
23
root 10.4219 17.7621 -18.1568 7.48773 -37.5809 -8.042
lowerback 3.61676 -0.446377 -1.9184
upperback -1.66569 -0.564389 4.48051
thorax -3.6933 -0.187078 5.78314
lowerneck -10.7669 -8.83498 -17.755
upperneck 15.9995 -11.6388 13.9315
head 8.63935 -5.50415 6.26727
rclavicle 1.03048e-013 5.96354e-015
rhumerus -37.4211 -19.555 -69.3523
rradius 35.708
rwrist -16.9448
rhand -10.3749 16.8539
rfingers 7.12502
rthumb 15.6226 -12.5353
lclavicle 1.03048e-013 5.96354e-015
lhumerus -33.2332 22.5088 75.5849
lradius 25.5458
lwrist -10.4183
lhand -0.0534005 33.9025
lfingers 7.12502
lthumb 25.5392 62.2106
rfemur -14.753 4.79208 23.2036
rtibia 37.8002
rfoot -20.1772 -10.2755
rtoes 11.3064
lfemur -12.3109 0.887195 -16.4319
ltibia 37.6279
lfoot -24.6782 9.51291
ltoes 6.33092
24
root 10.4197 17.7637 -18.1511 7.44175 -37.726 -7.94789
lowerback 3.55596 -0.341945 -1.90233
upperback -1.66909 -0.425758 4.39028
thorax -3.67861 -0.119145 5.66819
lowerneck -10.8259 -8.89453 -17.6881
upperneck 16.0443 -11.7402 13.9762
head 8.68148 -5.54223 6.2558
rclavicle 4.70871e-014 1.72943e-014
rhumerus -37.5916 -19.0723 -69.5516
rradius 36.0474
rwrist -17.5059
rhand -10.4298 16.7477
rfingers 7.12502
rthumb 15.5698 -12.6456
lclavicle 4.70871e-014 1.72943e-014
lhumerus -33.2219 22.4484 75.6196
lradius 25.5233
lwrist -10.7795
lhand -0.915536 32.5274
lfingers 7.12502
lthumb 24.7132 60.9512
rfemur -14.7558 4.90495 23.0971
rtibia 37.8037
rfoot -20.1964 -10.2372
rtoes 11.4642
lfemur -12.2391 0.844522 -16.5645
ltibia 37.5948
lfoot -24.726 9.62548
ltoes 6.44378
25
root 10.4178 17.7638 -18.149 7.4902 -37.7883 -8.0729
lowerback 3.56652 -0.277007 -1.71187
upperback -1.66485 -0.330609 4.33749
thorax -3.69148 -0.0766703 5.49698
lowerneck -10.937 -8.93533 -17.5947
upperneck 16.1225 -11.8188 14.037
head 8.73969 -5.56472 6.24826
rclavicle 4.16702e-014 1.78906e-015
rhumerus -37.6918 -19.0962 -69.6445
rradius 36.1581
rwrist -17.4147
rhand -10.6803 16.7502
rfingers 7.12502
rthumb 15.3285 -12.6617
lclavicle 4.16702e-014 1.78906e-015
lhumerus -33.1234 22.3127 75.6316
lradius 25.3976
lwrist -10.8821
lhand -0.849738 32.578
lfingers 7.12502
lthumb 24.7762 60.9932
rfemur -14.7161 4.91324 23.203
rtibia 37.7798
rfoot -20.1346 -10.2119
rtoes 11.1463
lfemur -12.2061 0.970937 -16.4447
ltibia 37.5874
lfoot -24.7218 9.50342
ltoes 6.64402
26
root 10.4129 17.7634 -18.1482 7.38427 -37.6387 -8.02709
lowerback 3.61022 -0.318188 -1.69733
upperback -1.65904 -0.385878 4.29669
thorax -3.70432 -0.104838 5.44969
lowerneck -10.9475 -8.95913 -17.6094
upperneck 16.1035 -11.8639 14.1208
head 8.74979 -5.57981 6.27318
rclavicle -9.42674e-015 2.80286e-014
rhumerus -37.6675 -19.2324 -69.7257
rradius 36.0816
rwrist -17.2676
rhand -10.917 16.736
rfingers 7.12502
rthumb 15.1005 -12.6932
lclavicle -9.42674e-015 2.80286e-014
lhumerus -33.1156 22.2164 75.6586
lradius 25.3864
lwrist -10.8424
lhand -0.481718 33.3167
lfingers 7.12502
lthumb 25.1289 61.6829
rfemur -14.6084 4.74436 23.1887
rtibia 37.7884
rfoot -20.1446 -10.1884
rtoes 10.9439
lfemur -12.1128 1.04484 -16.4415
ltibia 37.5402
lfoot -24.6599 9.44067
ltoes 6.03813
27
root 10.4132 17.7615 -18.1425 7.52673 -37.5924 -8.33624
lowerback 3.624 -0.33539 -1.37596
upperback -1.64833 -0.39209 4.34238
thorax -3.70153 -0.116019 5.31449
lowerneck -10.8838 -8.97932 -17.5982
upperneck 16.0052 -11.8882 14.0932
head 8.70687 -5.59485 6.25778
rclavicle 3.20385e-014 -2.64384e-014
rhumerus -37.6356 -19.0018 -69.9197
rradius 36.1433
rwrist -17.5446
rhand -11.2718 16.5317
rfingers 7.12502
rthumb 14.7586 -12.9228
lclavicle 3.20385e-014 -2.64384e-014
lhumerus -33.1761 22.2509 75.6922
lradius 25.4399
lwrist -10.8724
lhand -0.991936 32.5426
lfingers 7.12502
lthumb 24.6399 60.9765
rfemur -14.5128 4.68633 23.4679
rtibia 37.7447
rfoot -20.1778 -10.1171
rtoes 11.4914
lfemur -12.0392 1.03081 -16.1681
ltibia 37.554
lfoot -24.6735 9.54336
ltoes 5.54833
28
root 10.4057 17.7623 -18.1421 7.28995 -37.6907 -7.82321
lowerback 3.62568 -0.33369 -1.96204
upperback -1.76765 -0.416898 4.31412
thorax -3.82164 -0.109066 5.62412
lowerneck -10.721 -8.93846 -17.6464
upperneck 16.0053 -11.8321 14.0064
head 8.66459 -5.58536 6.2483
rclavicle -3.24159e-014 -1.51076e-014
rhumerus -37.7567 -18.5568 -69.9743
rradius 36.2672
rwrist -17.8287
rhand -11.406 16.3078
rfingers 7.12502
rthumb 14.6294 -13.1562
lclavicle -3.24159e-014 -1.51076e-014
lhumerus -33.3654 22.3946 75.7263
lradius 25.4035
lwrist -10.8631
lhand -1.40457 31.6093
lfingers 7.12502
lthumb 24.2444 60.0965
rfemur -14.5783 4.56908 22.9834
rtibia 37.7338
rfoot -20.1923 -9.93229
rtoes 11.7594
lfemur -12.0661 1.03 -16.651
ltibia 37.5344
lfoot -24.6688 9.67191
ltoes 5.26773
29
root 10.4068 17.7596 -18.1376 7.53377 -37.8074 -8.33707
lowerback 3.80682 -0.326968 -1.57487
upperback -1.86325 -0.380604 4.47641
thorax -4.02911 -0.0940876 5.57669
lowerneck -10.6475 -8.86678 -17.7272
upperneck 16.168 -11.736 13.9467
head 8.69003 -5.55425 6.26015
rclavicle 8.36744e-014 -3.37934e-014
rhumerus -37.8839 -18.3118 -69.9282
rradius 36.2367
rwrist -17.7647
rhand -11.1421 16.3766
rfingers 7.12502
rthumb 14.8836 -13.0688
lclavicle 8.36744e-014 -3.37934e-014
lhumerus -33.6312 22.6406 75.66
lradius 25.4315
lwrist -10.966
lhand -0.879134 31.9583
lfingers 7.12502
lthumb 24.7481 60.3774
rfemur -14.4639 4.73548 23.4333
rtibia 37.6767
rfoot -20.1538 -9.99506
rtoes 11.4781
lfemur -11.9849 1.1483 -16.2085
ltibia 37.5809
lfoot -24.7098 9.67884
ltoes 5.35999
30
root 10.4051 17.7585 -18.1337 7.54587 -37.7342 -8.33517
lowerback 3.75902 -0.375245 -1.52695
upperback -1.85716 -0.443785 4.45939
thorax -3.98903 -0.128101 5.53461
lowerneck -10.8458 -8.87739 -17.5859
upperneck 16.3127 -11.7371 13.8425
head 8.75884 -5.54688 6.19578
rclavicle 1.59199e-014 -3.45885e-014
rhumerus -37.8032 -18.6254 -69.9201
rradius 36.0654
rwrist -17.367
rhand -10.8855 16.5134
rfingers 7.12502
rthumb 15.1308 -12.9135
lclavicle 1.59199e-014 -3.45885e-014
lhumerus -33.682 22.8647 75.5491
lradius 25.5453
lwrist -11.2388
lhand -0.194883 32.5403
lfingers 7.12502
lthumb 25.4037 60.8677
rfemur -14.4426 4.78836 23.453
rtibia 37.6624
rfoot -20.1677 -10.1423
rtoes 11.1858
lfemur -12.0093 1.09269 -16.1902
ltibia 37.5863
lfoot -24.7378 9.57898
ltoes 5.86749
31
root 10.4011 17.7581 -18.1296 7.56183 -37.7055 -8.31717
lowerback 3.70015 -0.400373 -1.53077
upperback -1.86069 -0.478238 4.453
thorax -3.95561 -0.145922 5.53137
lowerneck -11.0474 -8.88941 -17.4104
upperneck 16.4275 -11.7404 13.725
head 8.81556 -5.53914 6.12007
rclavicle 1.01919e-013 -1.11319e-014
rhumerus -37.7451 -18.8751 -69.92
rradius 35.9363
rwrist -17.0642
rhand -10.6837 16.5299
rfingers 7.12502
rthumb 15.3252 -12.8822
lclavicle 1.01919e-013 -1.11319e-014
lhumerus -33.7648 23.116 75.4541
lradius 25.6431
lwrist -11.49
lhand -0.530257 32.058
lfingers 7.12502
lthumb 25.0824 60.4307
rfemur -14.4335 4.78911 23.449
rtibia 37.6143
rfoot -20.0788 -10.2351
rtoes 10.5774
lfemur -12.047 1.05504 -16.2021
ltibia 37.6314
lfoot -24.8026 9.556
ltoes 5.89907
